<svg xmlns="http://www.w3.org/2000/svg" version="1.1" xmlns:xlink="http://www.w3.org/1999/xlink" xmlns:svgjs="http://svgjs.dev/svgjs" width="200" height="200" viewBox="0 0 1000 1000"><g transform="matrix(1,0,0,1,-0.14221556886212738,-0.14221556886229791)"><svg viewBox="0 0 334 334" data-background-color="#ffffff" preserveAspectRatio="xMidYMid meet" height="1000" width="1000" xmlns="http://www.w3.org/2000/svg" xmlns:xlink="http://www.w3.org/1999/xlink"><g id="tight-bounds" transform="matrix(1,0,0,1,0.04749999999998522,0.04750000000001364)"><svg viewBox="0 0 333.90454557049503 333.90454557049503" height="333.90454557049503" width="333.90454557049503"><g><svg></svg></g><g><svg viewBox="0 0 333.90454557049503 333.90454557049503" height="333.90454557049503" width="333.90454557049503"><g><path d="M0 166.952c0-92.205 74.747-166.952 166.952-166.952 92.205 0 166.952 74.747 166.953 166.952 0 92.205-74.747 166.952-166.953 166.953-92.205 0-166.952-74.747-166.952-166.953zM166.952 316.63c82.665 0 149.677-67.013 149.678-149.678 0-82.665-67.013-149.677-149.678-149.677-82.665 0-149.677 67.013-149.677 149.677 0 82.665 67.013 149.677 149.677 149.678z" data-fill-palette-color="tertiary" fill="#e44945" stroke="transparent"></path><ellipse rx="160.27418187383762" ry="160.27418187383762" cx="166.95227278524752" cy="166.95227278524752" fill="#e44945" stroke="transparent" stroke-width="0" fill-opacity="1" data-fill-palette-color="tertiary"></ellipse></g><g transform="matrix(1,0,0,1,101.752353267706,71.17305217166896)"><svg viewBox="0 0 130.39983903508303 191.55844122715712" height="191.55844122715712" width="130.39983903508303"><g><svg viewBox="0 0 130.39983903508303 191.55844122715712" height="191.55844122715712" width="130.39983903508303"><g><svg viewBox="0 0 130.39983903508303 191.55844122715712" height="191.55844122715712" width="130.39983903508303"><g><svg viewBox="0 0 130.39983903508303 191.55844122715712" height="191.55844122715712" width="130.39983903508303"><g id="textblocktransform"><svg viewBox="0 0 130.39983903508303 191.55844122715712" height="191.55844122715712" width="130.39983903508303" id="textblock"><g><svg viewBox="0 0 130.39983903508303 191.55844122715712" height="191.55844122715712" width="130.39983903508303"><g transform="matrix(1,0,0,1,0,0)"><svg width="130.39983903508303" viewBox="2 -35.55 24.2 35.55" height="191.55844122715712" data-palette-color="#ffffff"><path d="M24.55 0L6.2 0Q3.7 0 2.85-0.28 2-0.55 2-1.2L2-1.2 2-32.3Q2-33.4 4.9-34.48 7.8-35.55 11.4-35.55L11.4-35.55Q14.6-35.55 15.6-34.2L15.6-34.2Q15.95-33.7 15.95-33.2L15.95-33.2 15.95-11.05Q22.05-11.45 25.15-11.45L25.15-11.45Q26.2-11.45 26.2-8.13 26.2-4.8 25.75-2.4 25.3 0 24.55 0L24.55 0Z" opacity="1" transform="matrix(1,0,0,1,0,0)" fill="#ffffff" class="wordmark-text-0" data-fill-palette-color="quaternary" id="text-0"></path></svg></g></svg></g></svg></g></svg></g><g></g></svg></g></svg></g></svg></g></svg></g><defs></defs></svg><rect width="333.90454557049503" height="333.90454557049503" fill="none" stroke="none" visibility="hidden"></rect></g></svg></g></svg>